<svg width="1280" height="832" viewBox="0 0 1280 832" fill="none" xmlns="http://www.w3.org/2000/svg">
<g clip-path="url(#clip0_1939_614)">
<g filter="url(#filter0_f_1939_614)">
<g clip-path="url(#paint0_diamond_1939_614_clip_path)" data-figma-skip-parse="true"><g transform="matrix(-0.608995 0.310594 -1.04633 -0.290566 971.657 248.942)"><rect x="0" y="0" width="1143.87" height="498.763" fill="url(#paint0_diamond_1939_614)" opacity="1" shape-rendering="crispEdges"/><rect x="0" y="0" width="1143.87" height="498.763" transform="scale(1 -1)" fill="url(#paint0_diamond_1939_614)" opacity="1" shape-rendering="crispEdges"/><rect x="0" y="0" width="1143.87" height="498.763" transform="scale(-1 1)" fill="url(#paint0_diamond_1939_614)" opacity="1" shape-rendering="crispEdges"/><rect x="0" y="0" width="1143.87" height="498.763" transform="scale(-1)" fill="url(#paint0_diamond_1939_614)" opacity="1" shape-rendering="crispEdges"/></g></g><path d="M130.466 446.579C121.873 420.057 148.233 365.513 285.321 354.455C456.682 340.634 528.967 339.7 538.065 297.302C547.164 254.903 1012.72 260.507 1009.18 323.824L1024.87 340.231C1109.3 350.235 1241.15 398.498 1093.12 511.52C908.089 652.799 972.294 460.358 743.278 386.581C560.065 327.56 766.852 446.87 743.278 471.462C714.96 490.323 666.651 486.545 628.458 478.179C675.621 511.155 694.697 572.439 476.866 552.407C203.902 527.304 147.148 473.475 130.466 446.579Z" data-figma-gradient-fill="{&#34;type&#34;:&#34;GRADIENT_DIAMOND&#34;,&#34;stops&#34;:[{&#34;color&#34;:{&#34;r&#34;:0.35294118523597717,&#34;g&#34;:0.40000000596046448,&#34;b&#34;:0.92156863212585449,&#34;a&#34;:1.0},&#34;position&#34;:0.0},{&#34;color&#34;:{&#34;r&#34;:0.34492611885070801,&#34;g&#34;:0.92625075578689575,&#34;b&#34;:0.50963479280471802,&#34;a&#34;:1.0},&#34;position&#34;:1.0}],&#34;stopsVar&#34;:[{&#34;color&#34;:{&#34;r&#34;:0.35294118523597717,&#34;g&#34;:0.40000000596046448,&#34;b&#34;:0.92156863212585449,&#34;a&#34;:1.0},&#34;position&#34;:0.0},{&#34;color&#34;:{&#34;r&#34;:0.34492611885070801,&#34;g&#34;:0.92625075578689575,&#34;b&#34;:0.50963479280471802,&#34;a&#34;:1.0},&#34;position&#34;:1.0}],&#34;transform&#34;:{&#34;m00&#34;:-1217.9901123046875,&#34;m01&#34;:-2092.6574707031250,&#34;m02&#34;:2626.9807128906250,&#34;m10&#34;:621.18786621093750,&#34;m11&#34;:-581.13116455078125,&#34;m12&#34;:228.91392517089844},&#34;opacity&#34;:1.0,&#34;blendMode&#34;:&#34;NORMAL&#34;,&#34;visible&#34;:true}"/>
</g>
</g>
<defs>
<filter id="filter0_f_1939_614" x="-196.853" y="-55.8533" width="1682.71" height="943.707" filterUnits="userSpaceOnUse" color-interpolation-filters="sRGB">
<feFlood flood-opacity="0" result="BackgroundImageFix"/>
<feBlend mode="normal" in="SourceGraphic" in2="BackgroundImageFix" result="shape"/>
<feGaussianBlur stdDeviation="162.927" result="effect1_foregroundBlur_1939_614"/>
</filter>
<clipPath id="paint0_diamond_1939_614_clip_path"><path d="M130.466 446.579C121.873 420.057 148.233 365.513 285.321 354.455C456.682 340.634 528.967 339.7 538.065 297.302C547.164 254.903 1012.72 260.507 1009.18 323.824L1024.87 340.231C1109.3 350.235 1241.15 398.498 1093.12 511.52C908.089 652.799 972.294 460.358 743.278 386.581C560.065 327.56 766.852 446.87 743.278 471.462C714.96 490.323 666.651 486.545 628.458 478.179C675.621 511.155 694.697 572.439 476.866 552.407C203.902 527.304 147.148 473.475 130.466 446.579Z"/></clipPath><linearGradient id="paint0_diamond_1939_614" x1="0" y1="0" x2="500" y2="500" gradientUnits="userSpaceOnUse">
<stop stop-color="#5A66EB"/>
<stop offset="1" stop-color="#58EC82"/>
</linearGradient>
<clipPath id="clip0_1939_614">
<rect width="1280" height="832" fill="white"/>
</clipPath>
</defs>
</svg>
